<?xml version="1.0" standalone="no"?>
<!DOCTYPE svg PUBLIC "-//W3C//DTD SVG 20010904//EN"
 "http://www.w3.org/TR/2001/REC-SVG-20010904/DTD/svg10.dtd">
<svg version="1.0" xmlns="http://www.w3.org/2000/svg"
 width="157.000000pt" height="293.000000pt" viewBox="0 0 157.000000 293.000000"
 preserveAspectRatio="xMidYMid meet">

<g transform="translate(0.000000,293.000000) scale(0.100000,-0.100000)"
fill="#000000" stroke="none">
<path d="M260 2861 c-79 -17 -161 -89 -180 -160 -12 -45 -17 -922 -10 -1871 4
-675 5 -643 10 570 l5 1285 22 41 c28 53 83 100 130 113 24 7 228 11 566 11
587 0 568 2 640 -68 70 -69 67 7 69 -1401 2 -844 4 -1015 5 -511 2 482 7 758
13 764 13 13 13 336 0 336 -6 0 -10 125 -10 355 0 392 -1 399 -63 463 -18 19
-50 43 -72 55 -39 22 -47 22 -565 24 -289 0 -541 -2 -560 -6z"/>
<path d="M242 2819 c-49 -14 -107 -77 -120 -132 -16 -60 -17 -2567 -2 -2567 7
0 10 434 10 1281 0 1426 -5 1321 68 1377 34 26 42 27 170 30 145 4 152 2 152
-49 0 -14 9 -34 21 -45 19 -18 39 -19 254 -19 263 0 271 2 277 74 l3 36 141 0
c140 0 141 0 178 -29 70 -53 66 39 66 -1376 0 -859 3 -1280 10 -1280 7 0 9
422 8 1288 l-3 1288 -27 41 c-15 22 -44 51 -65 64 -34 21 -52 24 -166 28 -139
3 -157 -2 -157 -48 0 -15 -7 -37 -16 -49 -15 -22 -19 -22 -248 -22 -213 0
-234 2 -249 18 -10 10 -17 30 -17 45 0 49 -20 57 -143 56 -62 0 -127 -5 -145
-10z"/>
<path d="M700 2770 c0 -5 5 -10 10 -10 6 0 10 5 10 10 0 6 -4 10 -10 10 -5 0
-10 -4 -10 -10z"/>
<path d="M745 2770 c3 -5 35 -10 71 -10 36 0 64 4 64 10 0 6 -30 10 -71 10
-44 0 -68 -4 -64 -10z"/>
</g>
</svg>
